Coordinates
version=1
nRows=34
nColumns=19
inDegrees=yes

Units are S.I. units (second, meters, Newtons, ...)
If the header above contains a line with 'inDegrees', this indicates whether rotational values are in degrees (yes) or radians (no).

endheader
time	pelvis_tilt	pelvis_list	pelvis_rotation	pelvis_tx	pelvis_ty	pelvis_tz	hip_flexion_r	hip_adduction_r	hip_rotation_r	knee_angle_r	knee_angle_r_beta	ankle_angle_r	hip_flexion_l	hip_adduction_l	hip_rotation_l	knee_angle_l	knee_angle_l_beta	ankle_angle_l
     17.20000000	    -10.13881921	      5.21665063	      2.76188752	      2.19553191	      1.07907977	      1.01260552	      3.17287067	    -13.25161319	    -11.94067626	     62.17480799	      1.08515511	    -22.66636064	     26.20040136	      7.01902986	     -7.69815457	     12.81429555	      0.22365165	      0.33961461
     17.20666667	     -9.97608223	      5.44359717	      2.98535014	      2.19421175	      1.07360812	      1.01215880	      4.24449099	    -13.46769216	    -11.02006808	     65.42829797	      1.14193922	    -23.00408618	     26.99577022	      7.12642086	     -8.11827626	     16.06859857	      0.28044995	      1.21898058
     17.21333333	     -9.25068632	      5.84561243	      3.20091644	      2.19311325	      1.06864289	      1.01179696	      4.64275978	    -13.88126496	    -10.29308222	     68.52603222	      1.19600489	    -23.32196053	     27.08431975	      7.38257300	     -8.52632726	     19.25756227	      0.33610787	      2.30246750
     17.22000000	     -9.01393530	      5.98839469	      3.38320589	      2.19163145	      1.06280694	      1.01155429	      5.73121540	    -13.93526922	     -9.37608252	     71.66113867	      1.25072282	    -23.59982959	     27.80984416	      7.34338638	     -8.83489249	     22.72460263	      0.39661914	      3.68887971
     17.22666667	     -9.83502126	      5.81661216	      3.54585120	      2.18958913	      1.05531207	      1.01146448	      8.20070909	    -13.58434100	     -8.20844953	     74.93066183	      1.30778676	    -23.81557439	     29.80188544	      6.97998502	     -9.02515511	     26.45291581	      0.46169048	      5.33828308
     17.23333333	     -9.90192663	      5.85595521	      3.67092510	      2.18784380	      1.04897140	      1.01135616	      9.75367036	    -13.47682999	     -7.25515182	     77.94017666	      1.36031270	    -23.88353988	     30.71382305	      6.87372777	     -9.04801871	     29.72237789	      0.51875336	      7.14114267
     17.24000000	    -10.14257625	      5.83363347	      3.75527600	      2.18593896	      1.04254410	      1.01123893	     11.57392112	    -13.28030349	     -6.26469849	     80.86650649	      1.41138679	    -23.78913555	     31.71026073	      6.73870346	     -8.96372328	     32.80836213	      0.57261394	      9.03705162
     17.24666667	    -10.38058945	      5.80595458	      3.77439806	      2.18396454	      1.03641909	      1.01117959	     13.44395842	    -13.04760196	     -5.25350348	     83.65420895	      1.46004138	    -23.53145085	     32.53717335	      6.62604056	     -8.79617679	     35.58823705	      0.62113191	     11.00705993
     17.25333333	    -10.82282798	      5.80106411	      3.77129853	      2.18192515	      1.03038452	      1.01101767	     15.58975099	    -12.85339809	     -4.24466975	     86.32869151	      1.50671991	    -23.05504540	     33.40563108	      6.58682302	     -8.57368776	     38.04344465	      0.66398337	     12.95573437
     17.26000000	    -11.22727106	      5.78151246	      3.64104298	      2.17984912	      1.02492468	      1.01097918	     17.75719730	    -12.57245698	     -3.14603075	     88.81366907	      1.55009095	    -22.43899289	     34.04240394	      6.49130876	     -8.43523547	     40.15623360	      0.70085849	     14.84567824
     17.26666667	    -11.43476473	      5.85522142	      3.48881051	      2.17801280	      1.02038554	      1.01085631	     19.66923751	    -12.36732014	     -2.08831519	     91.04712591	      1.58907212	    -21.48110369	     34.20930222	      6.52046687	     -8.28397466	     41.82392569	      0.72996521	     16.62933191
     17.27333333	    -12.18646734	      5.80501712	      3.29493452	      2.17590913	      1.01562983	      1.01070909	     22.29607340	    -12.05243442	     -1.03948593	     93.15639968	      1.62588589	    -20.70609347	     34.84705884	      6.43278699	     -8.13698224	     43.27250248	      0.75524764	     18.22104592
     17.28000000	    -12.54943462	      5.86295544	      3.01114578	      2.17413136	      1.01220485	      1.01063970	     24.44749998	    -11.79064045	      0.00373472	     94.94404580	      1.65708620	    -19.72709870	     34.79952622	      6.40026994	     -8.13191037	     44.26889055	      0.77263790	     19.65743623
     17.28666667	    -12.86069315	      5.92923945	      2.69338189	      2.17252114	      1.00956690	      1.01060170	     26.52662424	    -11.51971669	      0.98631982	     96.46725549	      1.68367123	    -18.69442788	     34.50177243	      6.34890204	     -8.20014433	     44.93053323	      0.78418574	     20.87585804
     17.29333333	    -12.96419803	      6.04904634	      2.29104149	      2.17125135	      1.00804801	      1.01060048	     28.33825577	    -11.29281121	      1.93032051	     97.66766324	      1.70462230	    -17.70641940	     33.74938225	      6.31812554	     -8.38471412	     45.19307919	      0.78876803	     21.92640988
     17.30000000	    -13.04142252	      6.13751490	      1.93880226	      2.17016217	      1.00730452	      1.01053852	     30.04327948	    -11.07084949	      2.69667870	     98.56067986	      1.72020838	    -16.68148064	     32.80877382	      6.29161708	     -8.54390783	     45.16974318	      0.78836074	     22.74175861
     17.30666667	    -13.02267992	      6.02970559	      1.79511086	      2.16935786	      1.00755954	      1.01013431	     31.46369425	    -10.79514818	      3.03754659	     99.05655041	      1.72886295	    -15.84662345	     31.62099269	      6.26050422	     -8.29820896	     44.88392784	      0.78337232	     23.41228478
     17.31333333	    -13.12262637	      6.28902549	      1.24810169	      2.16883545	      1.00818866	      1.01026692	     33.14736184	    -10.75235184	      3.80708425	     99.40648805	      1.73497051	    -14.92513551	     30.34853871	      6.28533474	     -8.87944642	     44.22364226	      0.77184816	     23.81163652
     17.32000000	    -13.12073233	      6.37840339	      0.94262144	      2.16860296	      1.00976716	      1.01007111	     34.51239031	    -10.68428400	      4.15506193	     99.37481463	      1.73441771	    -14.16986503	     28.84451835	      6.33914787	     -9.06294742	     43.32841344	      0.75622347	     24.01724718
     17.32666667	    -13.35287071	      6.09720747	      0.91136285	      2.16852662	      1.01172504	      1.00956390	     35.90491942	    -10.46084844	      3.91703020	     98.96775445	      1.72731317	    -13.55297087	     27.56975346	      6.13106796	     -8.93724824	     42.41926407	      0.74035582	     24.08959528
     17.33333333	    -12.72276105	      6.41478900	      0.46356247	      2.16919771	      1.01554875	      1.00946316	     36.37130876	    -10.71829601	      4.16979744	     98.31274983	      1.71588118	    -12.67163905	     25.01522736	      6.47051246	     -9.19413090	     40.78902043	      0.71190271	     23.81523182
     17.34000000	    -13.15257288	      6.10455957	      0.43223767	      2.16959295	      1.01837626	      1.00901400	     37.76563809	    -10.53679753	      3.71417703	     97.35275369	      1.69912609	    -12.05517844	     23.78086914	      6.23432781	     -9.10426871	     39.55017057	      0.69028070	     23.49421215
     17.34666667	    -12.37912988	      6.26620416	      0.15187646	      2.17095663	      1.02356273	      1.00870665	     37.73546696	    -10.87267988	      3.45951827	     96.09346738	      1.67714740	    -11.21806728	     20.86316012	      6.55364410	     -9.09874960	     37.49882962	      0.65447804	     22.63336322
     17.35333333	    -12.85773266	      5.97179899	      0.12397803	      2.17177256	      1.02731426	      1.00835448	     38.94853121	    -10.71624290	      2.87219074	     94.63918542	      1.65176539	    -10.55424381	     19.53204544	      6.37766658	     -8.90710350	     35.90844879	      0.62672066	     21.65481885
     17.36000000	    -12.02186374	      5.86470920	     -0.03099344	      2.17366185	      1.03340447	      1.00789990	     38.49754853	    -10.98995269	      2.09574831	     92.81910378	      1.61999897	     -9.75094850	     16.48480388	      6.44885717	     -8.79751224	     33.72056577	      0.58853490	     20.34091083
     17.36666667	    -11.89281723	      5.59006529	     -0.11172718	      2.17532939	      1.03876104	      1.00753516	     38.73111180	    -11.00331283	      1.24909190	     90.82790221	      1.58524595	     -9.03626088	     14.31878688	      6.31514754	     -8.63408616	     31.72706087	      0.55374167	     18.75285558
     17.37333333	    -12.55612367	      5.15140113	     -0.15187659	      2.17666078	      1.04316423	      1.00732716	     39.76806144	    -10.72582936	      0.38133273	     88.68878079	      1.54791123	     -8.44047900	     13.19571032	      5.94381159	     -8.50974276	     30.05231870	      0.52451191	     16.93355961
     17.38000000	    -11.59330860	      4.80014317	     -0.27505948	      2.17907122	      1.05020848	      1.00696022	     38.74207643	    -10.75775333	     -0.73481438	     86.15989760	      1.50377390	     -7.74732318	     10.02556767	      5.75271358	     -8.32787003	     27.74967159	      0.48432314	     14.72526064
     17.38666667	    -11.49431294	      4.33201275	     -0.36911121	      2.18103545	      1.05605069	      1.00675347	     38.63487230	    -10.51335150	     -1.79796786	     83.53189371	      1.45790658	     -7.21414173	      8.02430888	      5.36665786	     -8.21432405	     25.83905852	      0.45097665	     12.31430167
     17.39333333	    -11.43801487	      3.88049395	     -0.43842656	      2.18304004	      1.06186644	      1.00654913	     38.47848396	    -10.28157468	     -2.90149171	     80.73407815	      1.40907548	     -6.76929995	      6.14036827	      4.99256871	     -8.08254739	     23.99016711	      0.41870740	      9.66047106
     17.40000000	    -11.39801115	      3.36464444	     -0.53703735	      2.18502841	      1.06765983	      1.00645211	     38.23774993	     -9.92102834	     -4.02413883	     77.74300561	      1.35687142	     -6.45257271	      4.38210394	      4.51759257	     -8.01840099	     22.27742178	      0.38881436	      6.87359958
     17.40666667	    -11.43480586	      2.88731673	     -0.61026776	      2.18692080	      1.07325195	      1.00641408	     38.00795517	     -9.56333046	     -5.14650192	     74.61611844	      1.30229694	     -6.18583101	      2.83163960	      4.06069627	     -7.94897581	     20.72723923	      0.36175857	      3.94250216
     17.41333333	    -11.43581343	      2.38070499	     -0.70297643	      2.18880468	      1.07877534	      1.00646308	     37.64372888	     -9.14876303	     -6.32602594	     71.31029597	      1.24459946	     -6.02129753	      1.35227301	      3.54097908	     -7.97135803	     19.32965074	      0.33736605	      1.06236348
     17.42000000	    -12.28876951	      2.09638808	     -0.82198441	      2.19013313	      1.08274572	      1.00675870	     38.28935663	     -8.80815070	     -7.26502634	     68.04161350	      1.18755018	     -5.84700426	      1.10277137	      3.15205957	     -8.29292583	     18.48008761	      0.32253837	     -1.78592483
